<?xml version="1.0" encoding="UTF-8" standalone="no"?>
<!DOCTYPE svg PUBLIC "-//W3C//DTD SVG 1.1//EN" "http://www.w3.org/Graphics/SVG/1.1/DTD/svg11.dtd">
<svg width="100%" height="100%" viewBox="0 0 692 692" version="1.1" xmlns="http://www.w3.org/2000/svg" xmlns:xlink="http://www.w3.org/1999/xlink" xml:space="preserve" xmlns:serif="http://www.serif.com/" style="fill-rule:evenodd;clip-rule:evenodd;stroke-linejoin:round;stroke-miterlimit:2;">
    <g transform="matrix(1,0,0,1,-745.757,-2591.91)">
        <g id="Layer-1" serif:id="Layer 1">
        </g>
        <g id="path1" transform="matrix(1.06273,0,0,1.06273,775.242,2472.91)">
            <path d="M277.772,713.637C270.096,712.434 260.101,709.844 255.506,707.867L251.917,706.323L254.72,704.309C261.139,699.697 286.724,683.864 295.798,678.888C309.336,671.465 308.729,672.121 304.81,669.157L301.548,666.689L293.917,670.6C285.229,675.053 286.007,675.081 275.4,669.931C259.66,662.289 247.209,646.984 241.999,628.875C240.475,623.576 240.273,621.246 240.273,608.937L240.273,594.999L236.899,592.636L233.525,590.274L232.976,592.324C232.674,593.452 232.09,598.264 231.677,603.016C230.524,616.296 232.119,627.344 236.943,639.487C238.156,642.541 239.148,645.178 239.148,645.349C239.148,645.519 235.858,645.683 231.836,645.714C227.814,645.744 222.604,646.043 220.257,646.378C217.911,646.712 215.472,646.696 214.838,646.341C213.08,645.357 207.386,637.004 204.466,631.125C198.805,619.727 196.428,609.889 195.857,595.5C195.265,580.604 197.024,569.08 201.724,557.064L203.996,551.252L202.493,545.064C201.666,541.66 200.861,538.2 200.704,537.375C200.351,535.513 199.054,538.367 194.911,550.125C186.269,574.648 184.761,594.873 190.015,615.806C192.882,627.233 197.935,638.418 203.276,645.161C204.543,646.76 205.419,648.229 205.223,648.425C205.028,648.62 199.672,650.111 193.321,651.738C181.243,654.831 169.489,656.992 164.711,656.997C163.164,656.998 161.898,657.268 161.898,657.596C161.898,657.924 163.538,659.442 165.543,660.971C168.599,663.301 169.779,663.75 172.855,663.749C177.869,663.747 186.591,662.135 198.648,658.981C210.691,655.831 221.145,654.232 233.898,653.588L243.273,653.115L249.934,660.357C257.673,668.772 262.443,672.559 270.762,676.89L276.762,680.014L261.518,690.07L246.273,700.125L238.023,699.999C218.605,699.704 198.613,692.618 182.292,680.247C176.083,675.541 175.48,675.262 169.595,674.366C159.716,672.862 151.978,669.726 142.773,663.497C137.132,659.679 128.34,650.804 125.992,646.558L124.21,643.336L127.492,643.894C133,644.831 151.317,644.422 159.585,643.178C163.881,642.532 167.49,641.909 167.605,641.794C167.719,641.679 166.547,639.4 165,636.73C152.357,614.907 149.215,583.084 157.189,557.625C158.75,552.643 162.861,542.537 163.648,541.75C163.766,541.632 165.53,542.161 167.568,542.926C169.606,543.691 173.492,544.547 176.205,544.829L181.136,545.341L174.613,538.546C171.025,534.808 167.724,531.75 167.277,531.75C164.46,531.75 177.519,506.955 192,484.811L199.398,473.496L199.398,467.498C199.398,464.199 199.177,461.279 198.907,461.009C197.385,459.487 171.659,499.889 164.204,515.509C160.81,522.619 157.398,532.31 157.398,534.838C157.398,535.771 155.884,539.593 154.034,543.33C147.33,556.868 144.446,570.414 144.445,588.375C144.444,603.133 146.7,615.451 151.692,627.938L154.916,636L148.242,636C130.38,636 112.426,627.308 97.165,611.271C91.213,605.016 83.898,594.358 83.898,591.939C83.898,591.329 84.521,591.105 85.586,591.332C86.514,591.531 92.673,592.857 99.273,594.278C117.644,598.236 117.168,598.186 116.661,596.114C113.901,584.827 113.43,567.221 115.637,557.813C116.387,554.616 117.24,552 117.533,552C117.825,552 118.73,552.455 119.544,553.011C121.924,554.637 127.368,556.434 133.151,557.502L138.528,558.496L134.897,555.231C132.9,553.436 130.48,550.371 129.52,548.421C127.965,545.264 127.778,543.847 127.812,535.5C127.844,527.622 128.191,524.867 129.984,518.25C134.542,501.425 141.093,489.573 151.773,478.833C159.146,471.419 163.569,468.278 169.187,466.468C173.325,465.135 174.097,464.305 173.584,461.739C172.987,458.754 171.827,457.5 169.663,457.5C167.245,457.5 159.746,460.179 158.169,461.606C156.1,463.478 155.969,462.97 157.35,458.438C161.524,444.74 172.449,430.92 193.514,412.693C196.258,410.318 198.722,407.575 198.988,406.597C199.254,405.619 199.406,402.562 199.326,399.802L199.179,394.786L188.226,405.324C163.325,429.283 159.833,433.4 153.209,446.625C150.083,452.864 148.807,456.426 147.974,461.236C147.367,464.735 147.047,468.054 147.261,468.613C147.476,469.174 145.474,472.168 142.788,475.304C133.196,486.501 125.932,500.685 121.987,515.919C120.115,523.152 119.715,526.227 119.628,534.094L119.523,543.564L117.891,542.279C113.486,538.816 107.71,529.826 104.846,521.98C99.638,507.709 100.262,487.613 106.364,473.09C112.997,457.304 122.415,447.646 134.786,443.944C137.944,442.999 138.036,442.886 137.635,440.417C136.971,436.324 135.872,435.515 131.654,436.014C129.635,436.253 126.836,437.126 125.432,437.955L122.88,439.46L123.32,437.418C124.46,432.124 129.793,422.998 135.012,417.409C142.31,409.594 147.28,406.246 162.648,398.79C177.126,391.766 183.163,387.367 190.177,378.731C196.44,371.019 199.442,364.698 199.935,358.19C200.163,355.173 200.104,351.068 199.804,349.067L199.258,345.428L197.188,350.281C192.459,361.367 186.038,371.216 179.115,378C173.555,383.449 167.102,387.534 156.9,392.06C146.214,396.801 139.697,400.95 133.184,407.16C122.576,417.276 116.343,428.138 114.566,439.609C113.489,446.563 113.876,445.707 109.015,451.875C101.483,461.434 96.281,473.505 93.959,486.815C92.347,496.05 92.864,510.822 95.099,519.375C97.118,527.105 102.477,537.847 106.75,542.732L110.108,546.57L108.145,553.973C106.486,560.234 106.172,563.052 106.114,572.25C106.076,578.231 106.31,584.094 106.634,585.278C107.199,587.344 107.138,587.411 105.123,586.921C100.845,585.883 94.586,581.421 87.174,574.125C71.955,559.145 62.073,539.751 58.04,516.946C56.641,509.039 55.73,493.339 56.448,489.514L56.965,486.758L64.619,490.825C72.807,495.176 81.2,498.333 82.874,497.69C84.553,497.046 84.056,494.963 81.249,490.888C75.232,482.152 72.317,466.792 74.046,452.938C76.15,436.079 82.904,422.382 93.903,412.67C99.634,407.609 105.807,404.686 114.364,402.982L121.176,401.625L119.786,398.363L118.396,395.101L111.835,395.455C108.226,395.65 104.499,396.064 103.552,396.376L101.831,396.943L103.326,393.01C105.521,387.232 109.2,381.471 114.176,376.021C117.973,371.861 124.186,366.75 125.444,366.75C125.665,366.75 125.226,368.194 124.469,369.959C122.465,374.635 121.391,380.379 121.451,386.099C121.504,391.15 122.731,396.462 122.846,392.138C122.927,389.085 127.936,377.766 131.865,371.76C136.716,364.343 141.692,358.899 154.536,346.955C166.467,335.86 173.064,328.401 178.995,319.298C183.961,311.676 184.708,309.264 184.106,302.789C183.839,299.914 183.424,297.244 183.184,296.855C182.944,296.467 181.001,299.293 178.868,303.137C171.639,316.157 166.529,323.055 157.127,332.483C146.989,342.648 130.409,358.5 129.914,358.5C129.739,358.5 129.972,357.796 130.433,356.936C131.589,354.776 130.877,354.373 127.985,355.551C120.189,358.729 110.39,366.531 104.341,374.379C99.827,380.234 95.422,389.348 93.944,395.89C92.728,401.269 92.364,401.904 88.081,406.125C77.259,416.789 71.184,427.336 67.322,442.165C65.849,447.819 65.577,450.705 65.592,460.5C65.605,468.633 65.974,473.588 66.821,476.996C67.487,479.674 67.932,481.967 67.809,482.089C67.301,482.598 61.696,473.312 60.047,469.23C55.916,459.003 54.486,451.217 54.092,436.82C53.681,421.801 54.59,413.622 58.005,401.625C60.746,391.995 66.315,378.17 69.617,372.801L72.443,368.206L75.576,373.014C77.299,375.658 79.353,378.405 80.141,379.118C81.534,380.379 81.553,380.341 80.827,377.712C79.465,372.781 82.324,361.756 87.352,352.549C94.268,339.885 103.543,330.141 116.893,321.515C119.116,320.079 119.593,319.261 120.043,316.109C120.336,314.067 120.768,311.624 121.005,310.681C121.425,309.009 121.329,309.025 117.104,311.36C105.719,317.651 93.405,328.449 87.111,337.661C85.202,340.455 83.542,342.644 83.423,342.525C83.037,342.138 86.123,326.032 87.691,320.25C90.077,311.452 98.831,294.75 101.056,294.75C101.347,294.75 102.188,297.028 102.925,299.813C104.557,305.979 106.804,311.25 107.802,311.25C108.208,311.25 108.749,309.309 109.005,306.938C111.187,286.665 112.71,279.408 118.485,261.75C125.953,238.919 135.668,216.568 144.759,201.308C147.327,196.996 149.787,193.579 150.226,193.714C151.729,194.177 156.571,204.375 159.561,213.375C163.206,224.347 165.554,236.236 166.157,246.781L166.61,254.694L157.897,262.872C139.385,280.248 128.136,295.835 124.763,308.787C123.569,313.369 123.245,327.453 124.295,329.108C124.703,329.752 125.744,327.488 127.309,322.55C130.426,312.717 137.472,298.725 143.259,290.876C145.794,287.438 153.423,279.056 160.213,272.25C167.003,265.444 173.218,259.044 174.024,258.029C175.242,256.494 175.608,256.368 176.195,257.279C178.744,261.235 182.105,278.592 182.134,287.943L182.148,292.762L184.02,291.004C185.049,290.037 187.142,287.429 188.671,285.209L191.451,281.173L192.716,283.649C197.13,292.29 200.898,309.208 200.898,320.382C200.898,324.022 201.19,327 201.546,327C201.902,327 203.798,325.285 205.759,323.188C207.72,321.091 209.596,319.657 209.927,320.001C210.259,320.344 211.127,323.156 211.857,326.25C213.076,331.422 213.22,339.786 213.65,430.125C214.078,520.233 214.226,528.834 215.434,533.91C222.882,565.21 243.841,586.888 274.375,594.873C282.072,596.885 298.947,597.032 308.696,595.171L315.619,593.85L317.647,596.362C327.544,608.62 341.96,615.457 358.9,615.928C365.554,616.113 365.964,616.216 365.636,617.625C363.317,627.594 362.746,631.258 362.725,636.313C362.705,641.113 362.952,642.434 364.008,643.207C367.308,645.619 386.532,646.04 397.604,643.942C405.995,642.352 415.784,638.934 422.675,635.187C425.647,633.572 428.206,632.25 428.363,632.25C428.52,632.25 428.063,636.722 427.347,642.188C426.631,647.653 425.806,655.498 425.513,659.619L424.981,667.114L417.002,674.996C405.175,686.681 390.751,695.917 375.648,701.476C368.192,704.22 360.089,706.191 359.341,705.443C358.669,704.771 364.879,688.216 368.649,680.625C372.749,672.372 379.968,661.579 386.585,653.813L391.537,648L382.452,648L377.852,652.687C369.295,661.409 363.112,672.132 354.465,693.252L350.523,702.88L344.898,705.072C325.2,712.75 314.96,714.762 296.148,714.651C289.342,714.611 281.073,714.155 277.772,713.637ZM356.876,674.377C358.269,669.359 358.193,669.269 352.796,669.613C347.155,669.972 335.247,668.698 328.773,667.042C318.427,664.396 305.406,655.554 302.883,649.462C301.968,647.254 302.038,647.014 304.093,645.294C305.292,644.29 309.986,641.658 314.523,639.445C319.061,637.231 327.667,633.039 333.648,630.129C344.419,624.889 353.148,619.723 353.148,618.588C353.148,618.265 351.82,618 350.197,618C348.574,618 346.372,617.668 345.304,617.262C343.649,616.633 342.002,617.179 334.192,620.945C329.149,623.377 321.524,626.76 317.248,628.463L309.473,631.558L303.303,630.402C288.749,627.675 277.104,621.94 267.242,612.642C264.828,610.366 262.387,608.824 260.492,608.376C258.859,607.989 256.901,607.418 256.141,607.105C254.836,606.568 254.844,606.7 256.267,609.455C262.918,622.332 276.299,632.037 293.339,636.345L299.904,638.005L295.401,641.501C292.925,643.425 290.898,645.272 290.898,645.606C290.898,646.737 296.098,654.857 299.177,658.534C310.007,671.47 329.201,678.444 351.032,677.377L356.111,677.128L356.876,674.377ZM433.398,669.944C433.398,660.531 436.152,635.73 439.088,618.704C439.504,616.291 440.039,615.794 444.593,613.58C451.107,610.414 458.395,604.929 463.69,599.21L467.898,594.664L467.898,582.669L463.098,588.147C457.756,594.243 451.237,599.763 443.898,604.403C438.178,608.02 438.072,607.964 435.55,600.011C433.345,593.057 432.656,572.937 434.416,566.885C435.84,561.985 437.317,560.334 439.015,561.743C441.665,563.943 449.933,559.774 458.061,552.141C461.352,549.051 462.013,548.027 461.634,546.612C461.378,545.657 461.164,543.213 461.159,541.182L461.147,537.49L455.335,543.126C448.877,549.387 443.682,553.121 442.228,552.547C440.761,551.966 436.42,544.322 434.356,538.681C433.338,535.9 431.742,530.251 430.809,526.128L429.113,518.631L432.38,513.761C434.177,511.082 435.647,508.5 435.647,508.022C435.647,507.544 434.865,505.775 433.908,504.091L432.169,501.029L428.096,506.405C417.652,520.188 405.028,530.118 391.467,535.219L385.111,537.61L383.811,542.361C383.095,544.975 382.602,547.205 382.714,547.317C383.292,547.895 394.097,543.957 399.891,541.057C407.102,537.448 411.144,534.834 417.433,529.711C419.684,527.878 421.619,526.49 421.733,526.627C421.846,526.763 423.022,530.588 424.344,535.125C425.667,539.663 428.072,545.977 429.689,549.157L432.628,554.94L429.03,559.657C422.471,568.258 410.466,575.801 398.055,579.121C393.314,580.389 389.626,580.81 383.023,580.838C378.211,580.858 374.065,580.667 373.81,580.412C373.555,580.157 374.162,577.12 375.158,573.662C376.155,570.204 377.199,565.856 377.477,564L377.984,560.625L376.298,563.25C375.37,564.694 372.137,569.673 369.113,574.314C363.627,582.735 363.618,582.757 364.909,584.729C366.587,587.289 370.082,588.707 376.104,589.269C378.768,589.518 380.852,589.944 380.735,590.215C380.618,590.486 377.991,594.475 374.897,599.078L369.272,607.448L361.07,607.473C351.412,607.504 345.267,606.178 337.846,602.459C333.144,600.104 325.397,593.428 325.397,591.732C325.397,591.366 327.699,589.721 330.511,588.079C348.435,577.611 361.521,562.014 367.845,543.582C372.457,530.142 372.157,537.772 372.437,426.951L373.943,351.022C373.943,351.022 374.121,330.007 374.409,329.349C374.959,328.094 375.828,308.4 375.46,305.507C375.191,303.385 369.189,255.065 369.189,255.065L368.557,251.855C367.534,246.661 362.475,233.321 358.896,226.378C352.733,214.422 349.69,210.501 336.024,196.902C324.059,184.995 323.485,184.322 322.445,180.978C320.633,175.148 324.016,163.017 328.155,160.506C328.99,159.999 333.14,159.797 337.377,160.056C341.614,160.315 352.976,160.46 362.626,160.377C383.484,160.198 390.177,160.986 402.295,165.049C409.61,167.501 412.978,168.137 419.403,168.282C428.815,168.493 435.284,169.744 443.087,172.86C449.337,175.356 457.109,179.925 460.053,182.834C462.264,185.018 462.147,185.198 455.751,189.411C450.167,193.09 443.803,195.021 435.263,195.627C431.504,195.894 428.429,196.301 428.431,196.53C428.432,196.759 430.859,197.808 433.825,198.861C438.935,200.676 439.536,201.093 445.339,206.851C450.377,211.849 451.777,213.647 453.24,216.995C455.278,221.659 456.762,231.571 455.597,232.749C454.472,233.888 447.136,233.66 438.237,232.211C430.308,230.919 427.377,230.679 428.083,231.377C428.307,231.598 427.676,231.671 426.681,231.539C424.993,231.315 425.014,231.441 427.006,233.407C431.892,238.234 441.882,241.27 453.875,241.574L461.54,241.768L462.289,237.763L463.038,233.759L464.994,235.372C469.764,239.307 474.977,250.43 476.486,259.892C477.273,264.826 476.647,273.336 475.404,274.593C474.145,275.867 463.844,271.758 457.422,267.42C452.281,263.947 451.448,263.604 450.68,264.64C448.932,266.997 448.272,264.964 449.121,259.839C449.598,256.959 449.946,252.231 449.894,249.331L449.8,244.06L445.886,243.789C443.733,243.64 441.839,243.625 441.677,243.755C441.516,243.886 441.63,245.422 441.933,247.171C442.589,250.966 441.524,260.386 439.949,264.717C438.163,269.63 437.15,270.224 432.761,268.931C427.759,267.458 419.818,263.734 414.971,260.589L411.155,258.112L412.169,260.757C412.827,262.472 414.772,264.978 417.707,267.893C421.456,271.615 423.431,272.967 429.234,275.783C433.086,277.652 437.138,279.27 438.239,279.379C440.133,279.567 440.39,279.358 442.971,275.516C444.472,273.282 445.992,270.913 446.35,270.251C446.905,269.225 447.378,269.419 449.578,271.58C455.568,277.463 469.245,283.487 477.231,283.761L481.132,283.895L482.595,278.6C483.399,275.688 484.18,273.181 484.33,273.03C484.479,272.878 486.285,274.108 488.342,275.763C495.054,281.161 506.305,285.741 515.376,286.769L518.999,287.179L523.372,300.018C530.043,319.603 534.089,343.657 533.735,361.62C533.579,369.512 500.595,347.469 499.428,335.173L499.156,332.309L504.375,332.103L509.594,331.898L510.356,328.725C513.449,315.844 514.059,302.936 512.002,293.875L510.875,288.911L507.29,288.28C505.318,287.933 503.587,287.77 503.443,287.919C503.3,288.067 503.697,291.064 504.325,294.578C506.035,304.147 504.984,320.418 502.494,322.938C501.582,323.862 493.656,321.251 488.131,318.207C484.708,316.321 474.622,306.764 470.64,301.634C468.341,298.671 467.865,298.335 466.887,298.98C466.059,299.526 465.965,298.559 466.527,295.265C466.945,292.815 467.37,289.44 467.472,287.764L467.658,284.717L464.587,283.748C462.897,283.216 461.369,282.751 461.19,282.715C461.011,282.679 460.566,284.63 460.201,287.052C458.508,298.285 459.907,311.425 453.791,322.546C446.292,336.18 443.66,340.633 437.156,335.754C434.132,333.486 421.879,304.838 419.022,302.395L414.926,306.453L417.739,312.143C419.286,315.272 422.295,321.889 425.285,325.977C428.275,330.065 437.331,349.037 437.609,349.651C438.186,350.926 444.638,351.395 448.792,344.538C453.699,336.438 460.372,327.913 463.231,322.751C464.363,320.707 464.831,308.748 467.372,311.924C473.021,318.982 481.934,324.842 488.566,327.611L492.971,329.45L492.624,333.765C495.958,346.572 502.759,354.401 502.759,354.401C504.3,356.763 510.137,361.658 514.962,366.402L514.861,384.375L513.915,395.076C513.374,401.193 512.156,408.834 511.07,412.914C509.198,419.947 504.775,430.619 503.373,431.486C502.275,432.165 497.661,428.013 493.786,422.858C485.725,412.135 480.776,401.653 476.488,386.226L473.759,376.407L477.604,352.903C478.319,347.164 479.947,337.417 480.131,336.732C480.368,335.85 479.474,334.991 477.068,333.789C475.198,332.856 473.546,332.235 473.397,332.409C473.247,332.584 469.989,358.833 467.93,366.75C465.216,377.183 459.903,387.427 454.142,393.562C452.884,394.903 451.442,396 450.939,396C450.436,396 447.513,394.32 444.443,392.268C434.711,385.758 425.338,374.485 419.775,362.597L417.497,357.729L419.356,353.052C421.004,348.909 424.654,345.569 425.356,343.598C425.598,342.92 420.732,340.78 420.248,341.171C420.127,341.268 418.406,343.635 416.423,346.432C407.626,358.84 401.625,369.021 390.372,377.992L386.148,381.359L386.148,385.76C386.148,390.985 386.007,390.993 394.205,385.326C399.27,381.824 404.622,376.378 410.148,369.104L412.023,366.636L414.935,371.755C423.363,386.57 434.976,397.979 447.332,403.581C451.844,405.627 452.318,405.701 454.313,404.669C456.905,403.329 462.507,397.21 465.812,392.11C467.822,389.007 468.321,388.607 468.753,389.749C469.039,390.506 470.358,394.5 471.685,398.625C477.471,416.61 488.549,433.038 500.002,440.617C503.046,442.632 503.065,442.634 505.41,441.257C512.514,437.086 520.717,416.419 521.588,400.5C521.802,396.581 522.144,392.28 522.346,390.941L522.181,368.546L526.6,370.528C528.128,371.187 530.652,372.572 533.006,373.386C535.42,374.221 537.04,391.812 537.461,395.12C538.856,406.088 542.441,434.895 540.681,445.312C540.176,448.303 539.455,450.75 539.079,450.75C538.703,450.75 537.131,448.987 535.584,446.831C529.866,438.86 527.296,435.64 523.377,431.533L519.363,427.327L517.903,431.168L516.444,435.009L522.432,443.817C531.681,457.422 532.133,458.391 533.072,466.628C534.88,482.498 533.866,498.709 530.137,513.517C528.07,521.727 522.504,535.787 520.939,536.755C519.878,537.41 517.244,533.984 514.528,528.413C512.028,523.285 509.052,514.063 504.758,498.131L501.862,487.386L504.478,484.256C511.683,475.636 516.878,465.872 519.912,455.25L521.733,448.875L519.049,445.875C517.573,444.225 516.175,442.792 515.944,442.692C515.713,442.591 514.699,445.257 513.692,448.617C511.384,456.319 506.457,467.309 503.141,472.154C499.933,476.842 493.467,483.75 492.287,483.75C490.765,483.75 481.775,473.879 478.042,468.108C469.317,454.622 462.595,434.97 459.662,414.375C458.348,405.154 458.555,405.459 455.146,407.716L452.233,409.643L449.199,407.938C447.53,407.001 446.025,406.378 445.853,406.554C445.682,406.731 444.855,410.927 444.017,415.879C438.948,445.814 421.847,471.428 399.356,482.769C393.454,485.745 393.326,485.68 392.6,479.358C391.507,469.826 388.107,452.972 387.33,453.231C386.786,453.412 386.458,460.39 386.324,474.625C386.092,499.229 385.052,497.174 395.898,493.54C421.384,485.002 444.208,456.348 450.56,424.916L451.916,418.207L452.414,421.957C452.687,424.02 453.926,429.643 455.167,434.454C461.22,457.921 469.511,473.993 482.016,486.498C487.308,491.79 491.166,493.945 493.302,492.801C494.607,492.103 494.883,492.668 496.675,499.708C497.748,503.925 499.438,510.277 500.431,513.825L502.236,520.274L497.859,529.2C495.286,534.446 491.768,540.199 489.324,543.156C483.041,550.76 474.664,556.555 474.642,553.312C474.628,551.065 472.372,520.463 471.93,516.508L471.442,512.14L464.725,518.625L465.217,533.625C465.866,553.431 466.902,560.254 469.709,563.183L471.828,565.395L471.551,594.885C471.324,619.022 471.466,624.872 472.335,627.113C473.384,629.821 473.354,629.919 469.73,635.734C462.116,647.95 450.36,660.974 439.398,669.338C433.166,674.093 433.398,674.07 433.398,669.944L433.398,669.944ZM457.741,517.937C463.257,515.632 476.691,500.986 480.351,493.287L481.7,490.449L478.608,487.357L475.517,484.265L474.423,486.82C471.491,493.673 458.05,509.25 455.071,509.25C451.157,509.25 440.141,491.304 435.438,477.268L432.961,469.875L430.108,473.514L427.255,477.154L428.475,482.139C431.366,493.947 442.538,511.723 450.445,517.096C453.69,519.301 454.306,519.372 457.741,517.937ZM392.047,445.172C406.185,435.717 418.124,419.516 423.586,402.375C426.537,393.113 427.135,389.25 425.615,389.25C424.975,389.25 423.325,388.262 421.949,387.054L419.448,384.858L418.128,391.366C416.443,399.674 412.186,409.975 407.507,417.066C403.855,422.6 394.109,432.998 389.192,436.606C386.777,438.378 386.59,438.823 386.292,443.5C386.117,446.25 386.221,448.5 386.523,448.5C386.825,448.5 389.311,447.002 392.048,445.172L392.047,445.172ZM390.774,332.289C396.883,330.752 403.61,326.261 409.033,320.1C411.353,317.464 413.487,314.74 413.773,314.047C414.23,312.943 411.601,306.278 410.711,306.284C410.526,306.285 408.575,308.647 406.376,311.534C401.779,317.568 395.816,322.33 390.486,324.223C388.723,324.849 387.061,325.583 386.793,325.855C386.265,326.388 385.583,332.577 385.993,333.107C386.131,333.284 388.282,332.916 390.774,332.289ZM392.469,299.242C404.184,298.941 415.537,292.005 422.287,281.026L424.295,277.759L421.727,275.559C420.314,274.35 419.042,273.359 418.9,273.358C418.759,273.356 417.025,275.468 415.048,278.051C404.41,291.949 388.185,295.655 382.252,285.543C381.407,284.101 380.645,282.992 380.56,283.078C379.62,284.029 383.982,296.327 385.975,298.345C386.538,298.916 389.461,299.319 392.469,299.242L392.469,299.242ZM390.125,268.545C395.732,266.64 403.46,261.708 405.006,259.047C405.513,258.174 405.547,255.793 405.08,253.756L404.231,250.052L399.573,254.113C393.231,259.642 390.203,261.243 383.518,262.603L377.811,263.764L377.849,270.278L381.337,270.312C383.255,270.33 387.209,269.535 390.125,268.545ZM399.612,246.804C407.981,247.179 416.964,241.955 421.854,233.871C427.559,224.438 428.966,204.518 424.783,192.393C421.715,183.5 420.153,181.424 415.945,180.647L412.682,180.044L414.829,184.976C416.009,187.689 417.485,192.1 418.109,194.779C420.416,204.695 419.482,219.3 416.042,227.078C413.126,233.673 405.279,239.837 395.809,242.972L392.806,243.966L394.149,245.293C394.947,246.082 397.163,246.694 399.612,246.804ZM379.035,224.653C385.744,226.714 392.954,223.648 395.653,217.588C396.897,214.792 396.937,209.102 395.732,206.137C392.342,197.797 380.388,195.754 373.828,202.393C370.459,205.802 368.988,211.199 370.296,215.347C371.43,218.94 375.886,223.686 379.035,224.653ZM378.174,212.62C377.542,207.579 383.338,204.736 386.958,208.312C390.183,211.499 388.361,216.643 383.865,217.044C380.744,217.323 378.55,215.618 378.174,212.62ZM375.461,636.939L371.148,636.675L371.148,634.056C371.148,630.494 373.193,620.856 374.937,616.194C375.723,614.094 379.411,607.511 383.132,601.566C386.854,595.622 389.898,590.532 389.898,590.257C389.898,589.981 392.683,589.16 396.086,588.433C404.739,586.582 412.868,583.297 419.492,578.973L425.148,575.28L425.157,583.328C425.168,592.877 427.113,603.26 429.932,608.823C432.247,613.391 432.235,613.232 430.696,618.527L429.494,622.659L420.383,627.03C415.372,629.434 409.194,632.07 406.655,632.887C397.062,635.974 385.092,637.529 375.459,636.939L375.461,636.939ZM479.747,621.17C479.572,620.458 479.576,606.954 479.755,591.161L480.08,562.446L484.677,559.149C492.868,553.274 501.014,543.331 504.418,535.053C505.164,533.239 505.943,531.763 506.149,531.771C506.355,531.78 507.964,534.731 509.724,538.331L512.923,544.875L512.13,551.25C510.896,561.158 508.005,574.209 505.4,581.625C500.906,594.421 493.161,608.516 485.711,617.457C482.047,621.855 480.197,623.006 479.747,621.17L479.747,621.17ZM484.216,257.864C482.93,251.213 481.039,245.398 478.884,241.461C478.006,239.855 477.329,238.5 477.379,238.449C477.43,238.397 479.418,238.266 481.796,238.157C484.175,238.047 488.686,237.143 491.821,236.148L497.521,234.337L501.383,238.848C508.798,247.506 518.872,264.103 523.261,274.891L524.696,278.419L520.476,278.51C511.867,278.697 500.669,274.477 490.713,267.296L485.284,263.379L484.216,257.864ZM462.191,220.12C460.23,213.625 456.353,206.592 452.791,203.073L450.882,201.186L453.216,200.428C454.5,200.011 457.409,198.388 459.68,196.821C462.123,195.136 464.246,194.162 464.876,194.439C471.159,197.192 495.227,221.653 495.248,225.307C495.25,225.584 492.845,226.688 489.903,227.762C483.51,230.096 476.933,230.206 469.499,228.106L464.144,226.592L462.191,220.12Z" style="fill:rgb(197,29,72);fill-rule:nonzero;"/>
        </g>
        <g id="Artboard2" transform="matrix(1,0,0,1,-942.406,-34.9355)">
            <rect x="1688.16" y="2626.84" width="691.463" height="691.463" style="fill:none;"/>
        </g>
    </g>
</svg>
